# xmcd
#
# Track frame offsets:
#	150
#	11912
#	28169
#	39710
#	51491
#	60032
#	73957
#	88779
#	104012
#	122071
#
# Disc length: 1871 seconds
#
# Revision: 0
# Processed by: cddbd v1.5.2PL0 Copyright (c) Steve Scherf et al.
# Submitted via: dBpowerAMP V4.0
#
DISCID=91074d0a
DTITLE=Various Artist - COUNTRY LADIES
DYEAR=1900
DGENRE=Country
TTITLE0=HAPPIEST GIRL IN THE WHOLE USA-DONNA FARGO
TTITLE1=WHEN I DREAM-LYNN ANDERSON
TTITLE2=ARE YOU EVER GONNA LOVE ME AGAIN-HOLLY DUNN
TTITLE3=WALKIN' AFTER MIDNIGHT-PATSY CLINE
TTITLE4=BORN A WOMAN-SANDY POSEY
TTITLE5=MR. WALKER IT'S ALL OVER-BILLIE JO SPEARS
TTITLE6=SATIN SHEETS-JEANNE PRUETT
TTITLE7=TAKIN' IT EASY-LACY J. DALTON
TTITLE8=TELL ME A LIE-JANIE FRICKE
TTITLE9=SWEETEST THING-JUICE NEWTON
EXTD=
EXTT0=
EXTT1=
EXTT2=
EXTT3=
EXTT4=
EXTT5=
EXTT6=
EXTT7=
EXTT8=
EXTT9=
PLAYORDER=
